<svg xmlns="http://www.w3.org/2000/svg" xmlns:xlink="http://www.w3.org/1999/xlink" width="612.714" height="399.605" viewBox="0 0 612.714 399.605">
  <defs>
    <clipPath id="clip-path">
      <rect id="Rectangle_44832" data-name="Rectangle 44832" width="219.785" height="272.848" fill="none"/>
    </clipPath>
    <clipPath id="clip-path-3">
      <rect id="Rectangle_44824" data-name="Rectangle 44824" width="200.257" height="268.207" fill="none"/>
    </clipPath>
    <clipPath id="clip-path-5">
      <rect id="Rectangle_44842" data-name="Rectangle 44842" width="155.048" height="99.239" fill="#0272b9"/>
    </clipPath>
    <clipPath id="clip-path-10">
      <rect id="Rectangle_44842-2" data-name="Rectangle 44842" width="155.048" height="99.239" fill="#a32aff"/>
    </clipPath>
  </defs>
  <g id="Group_51616" data-name="Group 51616" transform="translate(-134.923 -452.395)">
    <g id="arrow" transform="matrix(0.695, 0.719, -0.719, 0.695, 420.112, 595.136)">
      <g id="Group_27278" data-name="Group 27278" transform="translate(87.906 5.72)">
        <path id="Path_13149" data-name="Path 13149" d="M.756,21.2a4.006,4.006,0,0,0,5.637,5.561,180.1,180.1,0,0,1,24.368-15.6c-1.329,9.8-2.614,19.379-1.513,30.272a5.754,5.754,0,0,0,4.5,4.789c4.5.585,4.864-4.51,4.642-6.711a124.942,124.942,0,0,1,.893-31.5L39.7,5.06a4.006,4.006,0,0,0-1.418-3.634C37.207.542,35.494-.591,33.6.361c-.453.228-11.15,4.521-31.978,19.971A4.007,4.007,0,0,0,.756,21.2Z" transform="translate(0 0)" fill="#71c5ff"/>
      </g>
      <g id="Group_27279" data-name="Group 27279" transform="translate(0 0)">
        <path id="Path_13150" data-name="Path 13150" d="M.16,67.805A2.455,2.455,0,0,1,1.6,64.562c.3-.08,19.632-6.834,34.54-18.211-5.567-7.265-8.6-15.65-8.6-23.026,0-8.845,2.958-14.263,5.439-17.251A15.877,15.877,0,0,1,45.013,0,14.784,14.784,0,0,1,56.035,5a22.491,22.491,0,0,1,4.4,17.927c-1.5,8.68-7.165,16.918-15.129,24.358,5.238,4.569,12.021,7.613,21.27,7.277,27.84-1.012,39.639-26.084,45.626-37.393.534-1.008,2.971-1.894,3.379-2.628a3.123,3.123,0,0,1,4.286-1.216,3.211,3.211,0,0,1,1.2,4.343c-.39.7-.839,1.552-1.351,2.517-5.959,11.255-21.79,41.155-53.141,41.155A36.138,36.138,0,0,1,40.807,51.06a97.819,97.819,0,0,1-12.143,7.393A127.663,127.663,0,0,1,3.3,69.106C2.286,69.356.717,69.356.16,67.805ZM45.013,6.378c-7.266,0-11.187,8.732-11.187,16.947A31.772,31.772,0,0,0,40.6,42.277C46.8,36.538,51.647,30,53.055,21.833c.855-4.956-.127-9.713-2.627-12.726A7.012,7.012,0,0,0,45.013,6.378Z" transform="translate(0 0)" fill="#71c5ff"/>
      </g>
    </g>
    <g id="Group_51554" data-name="Group 51554" transform="translate(-4463.184 3360)">
      <g id="Group_51556" data-name="Group 51556" transform="translate(4598.107 -2907.605)">
        <g id="Group_51528" data-name="Group 51528" clip-path="url(#clip-path)">
          <g id="Group_51525" data-name="Group 51525">
            <g id="Group_51524" data-name="Group 51524" clip-path="url(#clip-path)">
              <g id="Group_51523" data-name="Group 51523" transform="translate(19.528 4.641)" opacity="0.2">
                <g id="Group_51522" data-name="Group 51522">
                  <g id="Group_51521" data-name="Group 51521" clip-path="url(#clip-path-3)">
                    <path id="Path_16472" data-name="Path 16472" d="M170.643,10.412H55.042A11.236,11.236,0,0,0,43.806,21.648V267.383a11.236,11.236,0,0,0,11.236,11.236H227.861a16.2,16.2,0,0,0,16.2-16.2V80.784Z" transform="translate(-43.806 -10.412)"/>
                  </g>
                </g>
              </g>
            </g>
          </g>
          <path id="Path_16473" data-name="Path 16473" d="M0,222.665l24.455,26.076V222.665Z" transform="translate(0 -123.406)" fill="#0272b9"/>
          <g id="Group_51527" data-name="Group 51527">
            <g id="Group_51526" data-name="Group 51526" clip-path="url(#clip-path)">
              <path id="Path_16474" data-name="Path 16474" d="M159.039,0H43.438A11.236,11.236,0,0,0,32.2,11.236V256.971a11.236,11.236,0,0,0,11.236,11.236H221.223a11.236,11.236,0,0,0,11.236-11.236V70.372Z" transform="translate(-17.847)" fill="#fff"/>
              <path id="Path_16475" data-name="Path 16475" d="M316.73,0V59.136a11.236,11.236,0,0,0,11.236,11.236H390.15Z" transform="translate(-175.538)" fill="#ededed"/>
              <path id="Path_16476" data-name="Path 16476" d="M327.965,143.89a11.236,11.236,0,0,1-11.236-11.236v2.367a11.236,11.236,0,0,0,11.236,11.236h62.184v-2.366Z" transform="translate(-175.538 -73.52)" fill="#dbdbdb"/>
              <path id="Path_16477" data-name="Path 16477" d="M115.089,143H0V86.681a7.75,7.75,0,0,1,7.749-7.75h107.34a7.75,7.75,0,0,1,7.749,7.75v48.575A7.749,7.749,0,0,1,115.089,143" transform="translate(0 -43.745)" fill="#0272b9"/>
              <path id="Path_16478" data-name="Path 16478" d="M74.314,137.8c0,4.37-1.373,4.717-3.169,4.717a6.14,6.14,0,0,1-2.159-.38l-1.459-.568-.939,5.129.972.4a11.413,11.413,0,0,0,3.837.672c3.94,0,8.637-1.686,8.637-9.716V120.524h-5.72Z" transform="translate(-36.904 -66.797)" fill="#fff"/>
              <path id="Path_16479" data-name="Path 16479" d="M125.694,122.467c-1.731-1.558-4.311-2.347-7.668-2.347a37.971,37.971,0,0,0-6.223.486l-1.081.18v26.361h5.719v-9.532c.41.024.823.03,1.226.03,3.531,0,6.5-1.091,8.342-3.055a8.4,8.4,0,0,0,2.238-6.085,7.813,7.813,0,0,0-2.553-6.037m-3.167,6.181c0,3.214-2.6,3.889-4.789,3.889-.492,0-.923-.017-1.3-.052v-7.229c.436-.039.992-.066,1.657-.066,2.939,0,4.429,1.163,4.429,3.457" transform="translate(-61.364 -66.573)" fill="#fff"/>
              <path id="Path_16480" data-name="Path 16480" d="M170.43,136.836h4.931v5.022a12.877,12.877,0,0,1-2.881.272c-5.049,0-8.065-3.176-8.065-8.5,0-5.3,3.163-8.46,8.46-8.46a11.208,11.208,0,0,1,4.838.933l1.348.6,1.485-5.025-.99-.477a16.234,16.234,0,0,0-6.609-1.244c-8.591,0-14.39,5.551-14.431,13.819a13.807,13.807,0,0,0,3.784,9.971c2.51,2.4,5.77,3.561,9.964,3.561a23.736,23.736,0,0,0,7.888-1.408l.857-.307V131.728H170.43Z" transform="translate(-87.853 -66.484)" fill="#fff"/>
            </g>
          </g>
        </g>
      </g>
      <g id="Group_51555" data-name="Group 51555" transform="translate(4636.735 -2771.181)">
        <g id="Group_51554-2" data-name="Group 51554" clip-path="url(#clip-path-5)">
          <path id="Path_16490" data-name="Path 16490" d="M148.921,13.666a13.668,13.668,0,1,1,13.667,13.67,13.666,13.666,0,0,1-13.667-13.67" transform="translate(-105.876)" fill="#0272b9"/>
          <path id="Path_16491" data-name="Path 16491" d="M159.548,189.494l54.466-62.545,54.466,62.545Z" transform="translate(-113.432 -90.255)" fill="#0272b9"/>
          <path id="Path_16492" data-name="Path 16492" d="M0,226.283,41.441,178.7l41.441,47.588Z" transform="translate(0 -127.044)" fill="#0272b9"/>
        </g>
      </g>
    </g>
    <g id="Group_51558" data-name="Group 51558" transform="translate(527.853 579.152)">
      <g id="Group_51537" data-name="Group 51537" clip-path="url(#clip-path)">
        <g id="Group_51534" data-name="Group 51534">
          <g id="Group_51533" data-name="Group 51533" clip-path="url(#clip-path)">
            <g id="Group_51532" data-name="Group 51532" transform="translate(19.528 4.641)" opacity="0.2">
              <g id="Group_51531" data-name="Group 51531">
                <g id="Group_51530" data-name="Group 51530" clip-path="url(#clip-path-3)">
                  <path id="Path_16481" data-name="Path 16481" d="M170.643,10.412H55.042A11.236,11.236,0,0,0,43.806,21.648V267.383a11.236,11.236,0,0,0,11.236,11.236H227.861a16.2,16.2,0,0,0,16.2-16.2V80.784Z" transform="translate(-43.806 -10.412)"/>
                </g>
              </g>
            </g>
          </g>
        </g>
        <path id="Path_16482" data-name="Path 16482" d="M0,222.665l24.455,26.076V222.665Z" transform="translate(0 -123.406)" fill="#a32aff"/>
        <g id="Group_51536" data-name="Group 51536">
          <g id="Group_51535" data-name="Group 51535" clip-path="url(#clip-path)">
            <path id="Path_16483" data-name="Path 16483" d="M159.039,0H43.438A11.236,11.236,0,0,0,32.2,11.236V256.971a11.236,11.236,0,0,0,11.236,11.236H221.223a11.236,11.236,0,0,0,11.236-11.236V70.372Z" transform="translate(-17.847)" fill="#fff"/>
            <path id="Path_16484" data-name="Path 16484" d="M316.73,0V59.136a11.236,11.236,0,0,0,11.236,11.236H390.15Z" transform="translate(-175.538)" fill="#ededed"/>
            <path id="Path_16485" data-name="Path 16485" d="M327.965,143.89a11.236,11.236,0,0,1-11.236-11.236v2.367a11.236,11.236,0,0,0,11.236,11.236h62.184v-2.366Z" transform="translate(-175.538 -73.52)" fill="#dbdbdb"/>
            <g id="Group_51611" data-name="Group 51611">
              <path id="Path_16486" data-name="Path 16486" d="M115.089,143H0V86.681a7.75,7.75,0,0,1,7.749-7.75h107.34a7.75,7.75,0,0,1,7.749,7.75v48.575A7.749,7.749,0,0,1,115.089,143" transform="translate(0 -43.745)" fill="#a32aff"/>
              <path id="Path_16533" data-name="Path 16533" d="M2.574.5h6V-9.074a15.251,15.251,0,0,0,2.066.119c3.576,0,6.636-.874,8.7-2.821a8.559,8.559,0,0,0,2.464-6.358,7.83,7.83,0,0,0-2.861-6.2C17.158-25.764,14.5-26.48,10.76-26.48a49.579,49.579,0,0,0-8.186.556Zm6-22.174a10.318,10.318,0,0,1,2.5-.238c3.02,0,4.729,1.47,4.729,3.934,0,2.742-1.987,4.371-5.206,4.371a9.257,9.257,0,0,1-2.027-.159ZM31.225.5V-7.564c0-4.371-.079-8.146-.238-11.683l.119-.04a99.489,99.489,0,0,0,4.649,9.458L41.478.5h6.358V-26.281H42.273v7.828a99.4,99.4,0,0,0,.517,11.166H42.67a77.655,77.655,0,0,0-4.371-9.18l-5.563-9.815H25.662V.5ZM75.454-14.836H65.48v4.729h4.133v5.6a8.11,8.11,0,0,1-2.98.4c-4.967,0-8.425-3.259-8.425-8.782,0-5.8,3.815-8.663,8.862-8.663A14.841,14.841,0,0,1,73.308-20.4l1.272-4.848a18.448,18.448,0,0,0-7.431-1.311c-8.782,0-15.26,5.087-15.3,13.988a12.96,12.96,0,0,0,3.775,9.736c2.464,2.384,6,3.616,10.888,3.616a29.973,29.973,0,0,0,8.941-1.51Z" transform="translate(25.863 80.34)" fill="#fff"/>
            </g>
            <g id="Group_51559" data-name="Group 51559" transform="translate(38.628 136.424)">
              <g id="Group_51554-3" data-name="Group 51554" clip-path="url(#clip-path-10)">
                <path id="Path_16490-2" data-name="Path 16490" d="M148.921,13.666a13.668,13.668,0,1,1,13.667,13.67,13.666,13.666,0,0,1-13.667-13.67" transform="translate(-105.876)" fill="#a32aff"/>
                <path id="Path_16491-2" data-name="Path 16491" d="M159.548,189.494l54.466-62.545,54.466,62.545Z" transform="translate(-113.432 -90.255)" fill="#a32aff"/>
                <path id="Path_16492-2" data-name="Path 16492" d="M0,226.283,41.441,178.7l41.441,47.588Z" transform="translate(0 -127.044)" fill="#a32aff"/>
              </g>
            </g>
          </g>
        </g>
      </g>
    </g>
  </g>
</svg>
